# xmcd CD database file
#
# Track frame offsets:
#	150
#	25363
#	45410
#	64511
#	86812
#	97086
#	104061
#	112529
#	120609
#	150990
#	175322
#	193607
#	216071
#	237917
#	246156
#	261588
#
# Disc length: 3726 seconds
#
# Revision: 0
# Processed by: cddbd v1.5.2PL0 Copyright (c) Steve Scherf et al.
# Submitted via: CDex 1.51
#
DISCID=d80e8c10
DTITLE=Piano - Bar Classics Piano CD2
DYEAR=2009
DGENRE=Jazz
TTITLE0=David Helfgott - Impromptu in G Flat D 899
TTITLE1=Ryuichi Sakamoto - Opus
TTITLE2=Alicia De Larrocha - Danzas Españolas: Andaluza: Andantino, quasi Allegretto
TTITLE3=Christopher O'Riley - True Love Waits
TTITLE4=David Helfgott - Rustle of Spring Op. 32 No. 3
TTITLE5=Matthias Kirschnereit - Waltzes, Op. 39 No. 2
TTITLE6=Matthias Kirschnereit - Waltzes, Op. 39 No. 12
TTITLE7=Matthias Kirschnereit - Waltzes, Op. 39 No. 15
TTITLE8=Kathryn Stott - Pavane pour une infante défunte
TTITLE9=John Tilbury - The Durham Strike
TTITLE10=Vladimir Horowitz - Étude, Op. 10, No. 3 in E
TTITLE11=Ludovico Einaudi - Le Onde
TTITLE12=Jorge Bolet - Liebestraum No. 3
TTITLE13=Alexander Brailowsky - Waltz in D-flat Major, Op. 64, No. 1 "Minute"
TTITLE14=Juan José Chuquisengo - "Gandharva-Music" op. 49
TTITLE15=Philippe Entremont - Minuet in G Major, Op. 14, No. 1
EXTD=YEAR: 2009
EXTT0=
EXTT1=
EXTT2=
EXTT3=
EXTT4=
EXTT5=
EXTT6=
EXTT7=
EXTT8=
EXTT9=
EXTT10=
EXTT11=
EXTT12=
EXTT13=
EXTT14=
EXTT15=
PLAYORDER=
